<svg width="170" height="70" viewBox="0 0 170 70" fill="none" xmlns="http://www.w3.org/2000/svg">
<path fill-rule="evenodd" clip-rule="evenodd" d="M37.9321 22.2178C32.7088 22.2178 32.188 22.7667 29.4848 22.7667C27.2321 22.7667 20.4741 17.2744 17.0952 17.2744C13.7163 17.2744 9.77418 19.2516 9.77418 24.9636V31.5543C32.5138 25.1918 10.412 38.5875 12.8818 37.1703C9.96187 40.608 9.66688 44.6165 9.707 48.4971C8.92056 48.7235 8.11817 48.9787 7.33946 49.2437C4.92633 50.0659 2.36712 51.1141 1.21099 51.8579C-0.0167936 52.6477 -0.369301 54.2797 0.423635 55.5026C1.21657 56.7258 2.85469 57.077 4.08244 56.2872C4.63367 55.9325 6.6274 55.0587 9.05182 54.233C9.31971 54.1416 9.58812 54.0526 9.85513 53.9665C10.0184 55.4914 10.4236 56.8833 11.0259 58.1515L10.9427 58.1951C9.49698 58.9561 8.1555 59.83 7.30015 60.3871C7.15213 60.4834 7.01868 60.5702 6.90178 60.6455C5.67399 61.4353 5.32149 63.0673 6.11442 64.2902C6.90735 65.5134 8.54547 65.8646 9.77326 65.0748C9.91836 64.9813 10.073 64.8807 10.2362 64.7746C11.1018 64.2118 12.2087 63.4919 13.4155 62.8568C13.6984 62.7077 13.9707 62.5728 14.2312 62.4511C20.3366 68.1539 31.2978 70 37.9321 70C44.5661 70 55.5275 68.1539 61.6329 62.4511C61.8933 62.5728 62.1654 62.7077 62.4484 62.8568C63.6551 63.4919 64.762 64.2118 65.6276 64.7746C65.7909 64.8807 65.9455 64.9813 66.0905 65.0748C67.3184 65.8646 68.9564 65.5134 69.7496 64.2902C70.5425 63.0673 70.19 61.4353 68.962 60.6455C68.8452 60.5702 68.7119 60.4834 68.5637 60.3871C67.7083 59.83 66.3668 58.9561 64.9211 58.1951L64.8382 58.1515C65.4406 56.883 65.8456 55.4914 66.009 53.9662C66.2765 54.0523 66.5453 54.1412 66.8135 54.233C69.238 55.0587 71.2319 55.9325 71.7831 56.2872C73.0107 57.077 74.649 56.7258 75.4418 55.5026C76.2347 54.2797 75.8822 52.6477 74.6546 51.8579C73.4983 51.1141 70.9391 50.0659 68.5259 49.2437C67.7468 48.9783 66.9441 48.7235 66.1572 48.4968C66.1971 44.6162 65.9021 40.608 62.9822 37.1703C65.4522 38.5875 47.6868 26.2715 66.0902 31.5543V24.964C66.0902 19.252 62.1477 17.2748 58.7688 17.2748C55.3899 17.2748 48.632 22.7667 46.3794 22.7667C43.6762 22.7667 43.1557 22.2178 37.9321 22.2178ZM45.589 43.639C46.0707 42.8362 47.0212 41.8797 48.4471 41.8797C49.873 41.8797 50.8236 42.8362 51.3049 43.639C51.807 44.4763 52.0462 45.4911 52.0462 46.4932C52.0462 47.4953 51.807 48.5101 51.3049 49.3474C50.8236 50.1502 49.873 51.1067 48.4471 51.1067C47.0212 51.1067 46.0707 50.1502 45.589 49.3474C45.0869 48.5101 44.848 47.4953 44.848 46.4932C44.848 45.4911 45.0869 44.4763 45.589 43.639ZM24.5592 43.639C25.0405 42.8362 25.9911 41.8797 27.4171 41.8797C28.843 41.8797 29.7936 42.8362 30.275 43.639C30.7771 44.4763 31.0162 45.4911 31.0162 46.4932C31.0162 47.4953 30.7771 48.5101 30.275 49.3474C29.7936 50.1502 28.843 51.1067 27.4171 51.1067C25.9911 51.1067 25.0405 50.1502 24.5592 49.3474C24.0571 48.5101 23.8179 47.4953 23.8179 46.4932C23.8179 45.4911 24.0571 44.4763 24.5592 43.639Z" fill="#F4C856"/>
<path d="M56.6438 22.029C56.4834 20.9211 56.3032 19.7136 56.1227 18.4858C55.3211 13.1661 54.3993 7.3467 54.0886 6.50889C53.4975 4.91141 51.5739 0.410382 44.7507 2.96567C42.5964 3.77375 42.1756 4.59246 39.0497 4.18338C36.6853 3.87383 35.1723 2.0575 31.8857 0.819603C25.0628 -1.75532 22.0869 2.41654 21.4958 4.01347C21.1851 4.85182 20.2633 13.1662 19.4617 18.486C19.2714 19.6941 19.1013 20.8813 18.941 21.9797C24.0408 23.0072 30.4631 23.7359 37.9276 23.7359C45.2617 23.7356 51.594 23.0373 56.6438 22.029Z" fill="#503277"/>
<path d="M63.627 28.7363C62.525 28.4368 61.3227 28.1573 60.0602 27.8979C59.8097 27.7881 59.5592 27.6886 59.3087 27.5884H59.2989C52.8765 29.0057 45.3018 29.7243 37.9277 29.7243C30.5835 29.7243 23.0389 29.0057 16.6364 27.6086C16.4563 27.6784 16.2659 27.7583 16.0755 27.8382C14.8629 28.0875 13.7008 28.3468 12.6388 28.6265L12.6186 28.6366C6.58713 30.2337 2.89014 32.3994 2.89014 34.7948C2.89014 39.7055 18.5702 43.6978 37.9375 43.6978C57.2849 43.6978 72.9753 39.7053 72.9753 34.7948C72.9753 32.4495 69.4185 30.3332 63.627 28.7363Z" fill="#503277"/>
<path d="M89.0022 62.2224C87.408 62.2224 85.9104 61.9096 84.5095 61.2839C83.1327 60.6583 81.9129 59.8041 80.8501 58.7213C79.8114 57.6385 78.9902 56.3873 78.3863 54.9676C77.8066 53.5239 77.5167 51.9959 77.5167 50.3838C77.5167 48.6753 77.8187 47.0752 78.4225 45.5833C79.0264 44.0674 79.8718 42.744 80.9588 41.6131C82.0457 40.4581 83.3017 39.5558 84.7269 38.9061C86.1761 38.2564 87.7341 37.9316 89.4008 37.9316C90.8259 37.9316 92.2752 38.0037 93.7486 38.1481C95.222 38.2925 96.7075 38.5211 98.2051 38.8339L98.1327 44.0313C98.1327 44.3923 97.879 44.5727 97.3718 44.5727C97.1303 44.5727 96.9732 44.5126 96.9008 44.3923C96.8283 44.0795 96.7317 43.7666 96.6109 43.4538C96.5143 43.117 96.2969 42.6838 95.9588 42.1545C95.379 41.3123 94.5457 40.6506 93.4588 40.1693C92.396 39.6881 91.0795 39.4475 89.5095 39.4475C88.3259 39.4475 87.2148 39.7362 86.1761 40.3137C85.1375 40.8671 84.2196 41.6251 83.4225 42.5876C82.6496 43.5501 82.0457 44.6449 81.6109 45.8721C81.1761 47.0752 80.9588 48.3264 80.9588 49.6258C80.9588 51.623 81.2969 53.4156 81.9732 55.0037C82.6496 56.6399 83.7124 57.9995 85.1617 59.0823C86.6351 60.141 88.3742 60.6704 90.379 60.6704C92.7703 60.6704 94.6182 59.9726 95.9225 58.5769C96.309 58.1679 96.6109 57.6866 96.8283 57.1332C97.0457 56.5798 97.2148 56.0985 97.3356 55.6895C97.4563 55.2804 97.5771 55.0759 97.6979 55.0759C97.8428 55.0759 98.0119 55.1 98.2051 55.1481C98.4225 55.1721 98.5916 55.2203 98.7124 55.2924L98.8935 55.4007C98.8935 55.5451 98.8452 55.882 98.7486 56.4113C98.652 56.9407 98.5312 57.5302 98.3863 58.1799C98.2414 58.8055 98.0964 59.359 97.9515 59.8402C97.8307 60.3215 97.7341 60.5861 97.6617 60.6343C95.8742 61.693 92.9877 62.2224 89.0022 62.2224Z" fill="#F4C856"/>
<path d="M100.379 62.1141C100.282 62.0178 100.234 61.8133 100.234 61.5005C100.234 61.2118 100.282 61.0674 100.379 61.0674C100.572 61.0674 100.838 61.0313 101.176 60.9591C101.514 60.8869 101.828 60.7907 102.118 60.6704C102.408 60.55 102.565 60.4418 102.589 60.3455C102.686 60.0086 102.746 59.6237 102.77 59.1905C102.819 58.7574 102.843 58.3002 102.843 57.819V42.1906C102.843 41.3725 102.77 40.6025 102.625 39.8806C102.529 39.4956 101.913 39.3031 100.778 39.3031H100.452C100.307 39.3031 100.234 39.1708 100.234 38.9061C100.234 38.5211 100.307 38.3286 100.452 38.3286C101.901 38.1601 102.976 37.9676 103.676 37.7511C104.377 37.5345 104.86 37.342 105.125 37.1736L105.488 36.957H105.56C105.657 36.957 105.753 37.0292 105.85 37.1736C105.947 37.2939 106.007 37.4142 106.031 37.5345C105.766 38.3286 105.633 39.3753 105.633 40.6746V57.1332C105.633 57.831 105.657 58.4446 105.705 58.974C105.753 59.5033 105.826 59.9605 105.923 60.3455C105.971 60.4418 106.14 60.55 106.43 60.6704C106.72 60.7907 107.034 60.8869 107.372 60.9591C107.71 61.0313 107.952 61.0674 108.096 61.0674C108.169 61.0674 108.217 61.2118 108.241 61.5005C108.266 61.7893 108.253 61.9938 108.205 62.1141L104.328 61.9336L100.379 62.1141Z" fill="#F4C856"/>
<path d="M122.082 62.2946C121.889 62.2946 121.792 62.1021 121.792 61.7171V59.8763C121.792 59.756 121.768 59.6958 121.72 59.6958C120.125 61.4043 118.543 62.2585 116.973 62.2585C115.838 62.2585 114.932 61.9336 114.256 61.2839C113.604 60.6102 113.133 59.768 112.843 58.7574C112.577 57.7227 112.444 56.652 112.444 55.5451V50.9973C112.444 50.083 112.275 49.4333 111.937 49.0483C111.695 48.7596 111.406 48.5671 111.067 48.4708C110.753 48.3746 110.464 48.3264 110.198 48.3264C109.956 48.3024 109.836 48.2663 109.836 48.2182C109.836 47.6407 109.908 47.3399 110.053 47.3158C111.333 47.1233 112.36 46.9549 113.133 46.8105C113.93 46.6421 114.389 46.5458 114.509 46.5218L115.234 46.3413C115.331 46.3172 115.391 46.4135 115.415 46.63C115.439 46.8466 115.439 47.003 115.415 47.0993C115.27 48.2542 115.198 49.1446 115.198 49.7702V54.6428C115.198 56.4956 115.476 57.8671 116.031 58.7574C116.587 59.6237 117.493 60.0568 118.749 60.0568C119.232 60.0568 119.703 59.9244 120.162 59.6597C120.645 59.3951 121.031 59.0823 121.321 58.7213C121.635 58.3363 121.792 58.0115 121.792 57.7468V50.9973C121.792 50.083 121.623 49.4333 121.285 49.0483C121.043 48.7596 120.753 48.5671 120.415 48.4708C120.101 48.3746 119.811 48.3144 119.546 48.2903C119.304 48.2663 119.183 48.2422 119.183 48.2182C119.183 47.6407 119.256 47.3399 119.401 47.3158C120.681 47.1233 121.635 46.9669 122.263 46.8466C122.915 46.7263 123.435 46.618 123.821 46.5218L124.582 46.3413C124.679 46.3172 124.739 46.4135 124.763 46.63C124.787 46.8466 124.787 47.003 124.763 47.0993C124.618 48.2542 124.546 49.1205 124.546 49.698V56.9167C124.546 57.9995 124.63 58.9138 124.799 59.6597C124.872 59.9004 125.065 60.0568 125.379 60.129C125.693 60.1771 126.055 60.2252 126.466 60.2733L126.937 60.3094C127.009 60.3335 127.046 60.4658 127.046 60.7065C127.046 60.7786 127.009 60.8989 126.937 61.0674C126.889 61.2118 126.828 61.2839 126.756 61.2839C126.031 61.3321 125.234 61.4644 124.365 61.681C123.495 61.8735 122.843 62.0539 122.408 62.2224L122.082 62.2946Z" fill="#F4C856"/>
<path d="M136.176 62.2224C134.848 62.2224 133.628 61.8735 132.517 61.1757C131.406 60.4779 130.512 59.5515 129.836 58.3965C129.183 57.2174 128.857 55.906 128.857 54.4623C128.857 52.7779 129.171 51.3222 129.799 50.095C130.427 48.8678 131.285 47.9294 132.372 47.2797C133.459 46.606 134.679 46.2691 136.031 46.2691C137.142 46.2691 138.121 46.4857 138.966 46.9188C139.811 47.3279 140.464 47.8572 140.923 48.5069C141.357 49.1806 141.671 49.8664 141.865 50.5642C142.082 51.238 142.191 51.9117 142.191 52.5854C142.191 53.0667 142.118 53.3675 141.973 53.4878C141.828 53.584 141.551 53.6322 141.14 53.6322H132.009C131.816 53.6322 131.72 53.6923 131.72 53.8126C131.72 54.8232 131.925 55.7978 132.336 56.7362C132.746 57.6505 133.35 58.4085 134.147 59.0101C134.944 59.6116 135.923 59.9124 137.082 59.9124C138.096 59.9124 138.942 59.768 139.618 59.4793C140.319 59.1665 140.826 58.8898 141.14 58.6491L141.394 58.4687C141.538 58.4687 141.611 58.6251 141.611 58.9379C141.611 59.1063 141.538 59.3229 141.394 59.5876C140.91 60.2613 140.198 60.8749 139.256 61.4283C138.314 61.9577 137.287 62.2224 136.176 62.2224ZM132.009 52.1162H139.075C139.195 52.1162 139.256 51.9959 139.256 51.7553C139.256 51.2259 139.111 50.6484 138.821 50.0228C138.555 49.3731 138.145 48.8077 137.589 48.3264C137.034 47.8452 136.333 47.6046 135.488 47.6046C134.715 47.6046 134.051 47.8693 133.495 48.3986C132.939 48.9039 132.517 49.4935 132.227 50.1672C131.937 50.8169 131.792 51.3823 131.792 51.8636C131.792 52.032 131.865 52.1162 132.009 52.1162Z" fill="#F4C856"/>
<path d="M149.437 62.4028C148.688 62.4028 148.012 62.3186 147.408 62.1502C146.804 61.9818 146.067 61.8374 145.198 61.7171C145.101 61.4524 145.005 61.0914 144.908 60.6343C144.811 60.1771 144.727 59.6958 144.654 59.1905C144.606 58.6852 144.582 58.2762 144.582 57.9634C144.775 57.819 144.92 57.7468 145.017 57.7468C145.379 57.7468 145.572 57.819 145.596 57.9634C145.693 58.4446 145.935 58.9258 146.321 59.4071C146.708 59.8883 147.179 60.2974 147.734 60.6343C148.29 60.9471 148.857 61.1035 149.437 61.1035C150.21 61.1035 150.838 60.8989 151.321 60.4899C151.828 60.0568 152.082 59.4432 152.082 58.6491C152.082 57.807 151.756 57.1091 151.104 56.5557C150.596 56.1467 150.162 55.8579 149.799 55.6895C149.461 55.497 149.123 55.3285 148.785 55.1842C148.471 55.0157 148.072 54.7871 147.589 54.4984C145.705 53.4156 144.763 52.1283 144.763 50.6364C144.763 49.7702 145.005 49.0122 145.488 48.3625C145.971 47.6888 146.611 47.1714 147.408 46.8105C148.229 46.4255 149.099 46.233 150.017 46.233C150.282 46.233 150.584 46.2571 150.923 46.3052C151.261 46.3293 151.635 46.3654 152.046 46.4135C152.456 46.4857 152.795 46.5458 153.06 46.594C153.326 46.6421 153.543 46.6782 153.712 46.7022C153.978 47.8091 154.123 49.0363 154.147 50.3838C154.147 50.5041 153.99 50.5642 153.676 50.5642C153.338 50.5642 153.157 50.48 153.133 50.3116C153.012 49.6378 152.662 49.0002 152.082 48.3986C151.526 47.7971 150.886 47.4963 150.162 47.4963C148.423 47.4963 147.553 48.2061 147.553 49.6258C147.553 49.9867 147.589 50.3116 147.662 50.6003C147.758 50.865 147.964 51.1177 148.278 51.3583C149.026 51.9358 149.908 52.5133 150.923 53.0908C151.961 53.6682 152.819 54.2097 153.495 54.715C154.509 55.4849 155.017 56.3873 155.017 57.422C155.017 58.3604 154.763 59.2146 154.256 59.9846C153.749 60.7305 153.072 61.32 152.227 61.7532C151.381 62.1863 150.452 62.4028 149.437 62.4028Z" fill="#F4C856"/>
<path d="M155.073 33.1488C152.923 33.1488 151.208 32.6315 149.928 31.5968C148.672 30.5621 148.044 29.1424 148.044 27.3378C148.044 25.7737 148.575 24.4744 149.638 23.4397C150.701 22.3809 152.174 21.3703 154.058 20.4078C153.551 19.5657 153.068 18.6032 152.609 17.5204C152.174 16.4376 151.957 15.3668 151.957 14.3081C151.957 13.3937 152.186 12.5636 152.645 11.8176C153.128 11.0717 153.768 10.4822 154.565 10.0491C155.362 9.59187 156.268 9.36328 157.283 9.36328C158.901 9.36328 160.181 9.72421 161.123 10.4461C162.065 11.1439 162.536 12.1304 162.536 13.4057C162.536 14.8735 162.065 16.1248 161.123 17.1594C160.181 18.1941 158.853 19.2408 157.138 20.2996C157.838 21.4786 158.635 22.6697 159.529 23.8728C160.423 25.0759 161.413 26.279 162.5 27.4821C162.814 27.025 163.092 26.5798 163.333 26.1467C163.575 25.6895 163.792 25.2564 163.986 24.8473C164.372 24.0533 164.565 23.5239 164.565 23.2592C164.565 22.9223 164.36 22.7419 163.949 22.7178C163.563 22.6697 163.225 22.6336 162.935 22.6095C162.887 22.4652 162.862 22.3208 162.862 22.1764C162.862 21.9839 162.899 21.8516 162.971 21.7794H165.833C166.679 21.7794 167.428 21.7553 168.08 21.7072C168.756 21.6591 169.336 21.623 169.819 21.5989C169.94 21.6711 170 21.8275 170 22.0681C170 22.4291 169.928 22.6095 169.783 22.6095C169.589 22.6095 169.312 22.6456 168.949 22.7178C168.611 22.79 168.285 22.8742 167.971 22.9705C167.657 23.0427 167.428 23.1269 167.283 23.2231C167.186 23.3194 166.969 23.6562 166.631 24.2337C166.292 24.7872 165.858 25.4609 165.326 26.255C164.795 27.049 164.191 27.831 163.515 28.601C164.288 29.3951 164.879 29.9966 165.29 30.4057C165.725 30.7907 166.063 31.0554 166.304 31.1998C166.57 31.3441 166.824 31.4163 167.065 31.4163C167.403 31.4163 167.766 31.2118 168.152 30.8027C168.563 30.3937 168.829 30.0448 168.949 29.756C169.143 29.756 169.324 29.8282 169.493 29.9726C169.686 30.117 169.783 30.2613 169.783 30.4057C169.638 30.6944 169.42 31.0434 169.131 31.4524C168.841 31.8615 168.43 32.2344 167.899 32.5713C167.391 32.8841 166.703 33.0405 165.833 33.0405C165.205 33.0405 164.541 32.824 163.841 32.3908C163.164 31.9337 162.633 31.5005 162.246 31.0915L161.667 30.4418C159.614 32.2465 157.416 33.1488 155.073 33.1488ZM156.486 19.1446C157.742 18.4227 158.647 17.7008 159.203 16.979C159.783 16.233 160.073 15.2104 160.073 13.911C160.073 13.0448 159.831 12.2868 159.348 11.6372C158.865 10.9875 158.237 10.6626 157.464 10.6626C156.667 10.6626 155.99 10.9273 155.435 11.4567C154.879 11.962 154.602 12.6237 154.602 13.4418C154.602 14.9818 155.23 16.8827 156.486 19.1446ZM156.304 31.5968C157.053 31.5968 157.85 31.4163 158.696 31.0554C159.565 30.6944 160.278 30.2132 160.833 29.6116C160.374 29.1304 159.831 28.5048 159.203 27.7348C158.599 26.9648 157.995 26.1707 157.391 25.3526C156.812 24.5345 156.304 23.8006 155.87 23.1509L154.891 21.7072C154.215 22.1885 153.587 22.6577 153.007 23.1148C152.452 23.548 152.005 24.0533 151.667 24.6308C151.329 25.2083 151.16 25.9422 151.16 26.8325C151.16 28.4206 151.655 29.6116 152.645 30.4057C153.635 31.1998 154.855 31.5968 156.304 31.5968Z" fill="#503277"/>
<path d="M74.2513 33.1486C74.1788 33.0765 74.1426 32.8599 74.1426 32.499C74.1426 32.1861 74.1788 32.0297 74.2513 32.0297C74.4928 32.0297 74.7827 31.9937 75.1208 31.9215C75.4831 31.8493 75.8213 31.7651 76.1353 31.6688C76.4735 31.5485 76.6788 31.4162 76.7513 31.2718C76.9203 31.0071 77.0049 29.8762 77.0049 27.879V14.2357C77.0049 13.5379 76.9807 12.9243 76.9324 12.395C76.9083 11.8656 76.8479 11.4445 76.7513 11.1317C76.7029 10.9873 76.5097 10.855 76.1715 10.7347C75.8575 10.6144 75.5073 10.5181 75.1208 10.4459C74.7585 10.3737 74.4686 10.3376 74.2513 10.3376C74.1546 10.3376 74.1063 10.1933 74.1063 9.90452C74.1063 9.59171 74.1546 9.38719 74.2513 9.29094L78.5991 9.36312C78.9614 9.36312 79.3599 9.36312 79.7947 9.36312C80.2295 9.33906 80.6884 9.315 81.1715 9.29094C81.6546 9.26687 82.1136 9.25484 82.5484 9.25484C82.9831 9.23078 83.3696 9.21875 83.7078 9.21875C84.5049 9.21875 85.3141 9.33906 86.1353 9.57968C86.9566 9.82031 87.7416 10.1812 88.4904 10.6625C89.2633 11.1437 89.8793 11.8295 90.3382 12.7198C90.8213 13.6101 91.0628 14.6448 91.0628 15.8238C91.0628 16.5698 90.9058 17.3638 90.5918 18.206C90.2778 19.0482 89.8068 19.8422 89.1788 20.5882C88.5749 21.31 87.802 21.8995 86.8599 22.3567C85.9421 22.8139 84.8793 23.0425 83.6715 23.0425C82.3189 23.0425 81.3889 22.7056 80.8817 22.0319C80.7368 21.8635 80.7005 21.5867 80.773 21.2017C80.8213 21.0814 80.8575 21.0453 80.8817 21.0935C81.6305 21.3581 82.4397 21.4905 83.3092 21.4905C84.1305 21.4905 84.8672 21.2619 85.5194 20.8047C86.1957 20.3235 86.7271 19.6979 87.1136 18.9279C87.5242 18.1338 87.7295 17.2796 87.7295 16.3652C87.7295 14.6568 87.3551 13.3093 86.6063 12.3228C85.8575 11.3122 84.6981 10.8069 83.1281 10.8069C82.017 10.8069 81.1715 10.8911 80.5918 11.0595C80.3744 11.0836 80.2416 11.4565 80.1933 12.1784C80.1691 12.9003 80.157 13.8507 80.157 15.0298V27.9151C80.157 29.5032 80.2537 30.5499 80.4469 31.0552C80.5435 31.2477 80.773 31.4282 81.1353 31.5966C81.5218 31.7651 81.9324 31.8974 82.3672 31.9937C82.802 32.0658 83.116 32.1019 83.3092 32.1019C83.4058 32.1019 83.4541 32.2704 83.4541 32.6072C83.4541 32.7757 83.43 32.9561 83.3817 33.1486C82.174 33.1005 81.1715 33.0644 80.3744 33.0404C79.6015 32.9922 79.0339 32.9682 78.6715 32.9682L74.2513 33.1486Z" fill="#F4C856"/>
<path d="M97.657 33.293C96.5459 33.293 95.6281 33.0043 94.9034 32.4268C94.1788 31.8252 93.8165 30.9349 93.8165 29.7559C93.8165 28.3121 94.7585 27.109 96.6426 26.1465C97.4638 25.7375 98.273 25.4126 99.0701 25.172C99.8913 24.9314 100.713 24.6547 101.534 24.3419C101.751 24.2697 101.86 24.0892 101.86 23.8005V21.0935C101.86 20.3235 101.618 19.7339 101.135 19.3249C100.652 18.8918 100.073 18.6752 99.3962 18.6752C98.6715 18.6752 98.0677 18.9279 97.5846 19.4332C97.1015 19.9144 96.8599 20.5521 96.8599 21.3461C96.8599 22.1883 96.3648 22.6094 95.3744 22.6094C94.674 22.6094 94.2029 22.3808 93.9614 21.9236C93.9614 21.4183 94.1667 20.901 94.5773 20.3716C95.0121 19.8182 95.5677 19.3129 96.244 18.8557C96.9203 18.3985 97.657 18.0255 98.4541 17.7368C99.2754 17.448 100.085 17.3037 100.882 17.3037C102.21 17.3037 103.164 17.6285 103.744 18.2782C104.324 18.9038 104.614 19.9264 104.614 21.3461V29.6837C104.614 30.189 104.746 30.6101 105.012 30.9469C105.278 31.2838 105.64 31.4522 106.099 31.4522C106.413 31.4522 106.836 31.2838 107.367 30.9469C107.464 30.9469 107.512 31.0432 107.512 31.2357C107.512 31.5485 107.452 31.8012 107.331 31.9937C106.341 32.8358 105.495 33.2569 104.795 33.2569C104.239 33.2569 103.708 33.0283 103.201 32.5711C102.693 32.114 102.343 31.6327 102.15 31.1274C102.029 31.2237 101.872 31.356 101.679 31.5244C101.51 31.6688 101.365 31.7891 101.244 31.8854C100.737 32.2704 100.181 32.6072 99.5773 32.896C98.9976 33.1607 98.3575 33.293 97.657 33.293ZM99.0339 31.2357C99.7102 31.2357 100.35 31.0432 100.954 30.6582C101.558 30.2732 101.86 29.8641 101.86 29.431V25.7134C101.232 25.954 100.628 26.1706 100.048 26.3631C99.4928 26.5556 99.0459 26.712 98.7078 26.8323C98.273 27.0007 97.8503 27.3015 97.4397 27.7346C97.0532 28.1678 96.8599 28.661 96.8599 29.2145C96.8599 29.9363 97.0773 30.4537 97.5121 30.7665C97.9711 31.0793 98.4783 31.2357 99.0339 31.2357Z" fill="#F4C856"/>
<path d="M116.208 33.4374C115.942 33.4374 115.797 33.3893 115.773 33.293C115.483 32.6433 115.169 31.9335 114.831 31.1635C114.517 30.3694 114.179 29.5152 113.816 28.6009C113.068 26.7962 112.367 25.172 111.715 23.7283C111.063 22.2605 110.302 20.7566 109.432 19.2166C109.118 18.6872 108.466 18.4226 107.476 18.4226C107.379 18.4226 107.331 18.2661 107.331 17.9533C107.331 17.6646 107.379 17.4721 107.476 17.3758C107.983 17.3999 108.551 17.448 109.179 17.5202C109.807 17.5683 110.435 17.5804 111.063 17.5563L114.686 17.3758C114.734 17.4721 114.746 17.6766 114.722 17.9894C114.722 18.2782 114.686 18.4226 114.614 18.4226C113.406 18.4226 112.802 18.6993 112.802 19.2527C112.802 19.4211 113.201 20.3235 113.998 21.9597C114.795 23.5719 115.833 25.8217 117.114 28.7092C117.959 26.327 118.623 24.4501 119.106 23.0786C119.614 21.707 119.867 20.925 119.867 20.7325C119.867 20.6122 119.795 20.4077 119.65 20.1189C119.529 19.8302 119.372 19.5054 119.179 19.1444C118.986 18.8557 118.72 18.6632 118.382 18.5669C118.044 18.4707 117.693 18.4226 117.331 18.4226C117.234 18.4226 117.186 18.2661 117.186 17.9533C117.186 17.6646 117.234 17.4721 117.331 17.3758C117.838 17.3999 118.394 17.436 118.998 17.4841C119.626 17.5323 120.242 17.5563 120.845 17.5563C121.618 17.5563 122.295 17.5323 122.874 17.4841C123.478 17.436 123.986 17.3999 124.396 17.3758C124.444 17.5683 124.469 17.7729 124.469 17.9894C124.469 18.2301 124.432 18.3744 124.36 18.4226C123.201 18.4226 122.621 18.8918 122.621 19.8302C122.621 20.3114 123.949 23.2711 126.606 28.7092C127.089 27.2173 127.56 25.8458 128.019 24.5945C128.478 23.3192 128.853 22.2605 129.143 21.4183C129.432 20.5521 129.577 19.9746 129.577 19.6858C129.577 18.8436 128.78 18.4226 127.186 18.4226H127.041C126.944 18.4226 126.896 18.2661 126.896 17.9533C126.896 17.6646 126.944 17.4721 127.041 17.3758C127.573 17.3999 128.152 17.436 128.78 17.4841C129.408 17.5323 130.048 17.5563 130.701 17.5563C131.28 17.5563 131.836 17.5323 132.367 17.4841C132.923 17.436 133.442 17.3999 133.925 17.3758C133.973 17.5683 133.998 17.7488 133.998 17.9172C133.998 18.2541 133.937 18.4226 133.816 18.4226C133.502 18.4226 133.08 18.5308 132.548 18.7474C132.017 18.9399 131.667 19.2647 131.498 19.7219L126.751 32.6433C126.582 33.1727 126.244 33.4374 125.737 33.4374C125.471 33.4374 125.326 33.3893 125.302 33.293L120.845 22.6816L117.186 32.6433C117.114 32.8118 116.981 32.9802 116.787 33.1486C116.618 33.3411 116.425 33.4374 116.208 33.4374Z" fill="#F4C856"/>
<path d="M139.94 33.4374C139.191 33.4374 138.515 33.3532 137.911 33.1847C137.307 33.0163 136.57 32.8719 135.701 32.7516C135.604 32.4869 135.507 32.126 135.411 31.6688C135.314 31.2116 135.23 30.7304 135.157 30.2251C135.109 29.7198 135.085 29.3107 135.085 28.9979C135.278 28.8535 135.423 28.7813 135.519 28.7813C135.882 28.7813 136.075 28.8535 136.099 28.9979C136.196 29.4791 136.437 29.9604 136.824 30.4416C137.21 30.9229 137.681 31.3319 138.237 31.6688C138.792 31.9816 139.36 32.138 139.94 32.138C140.713 32.138 141.341 31.9335 141.824 31.5244C142.331 31.0913 142.585 30.4777 142.585 29.6837C142.585 28.8415 142.258 28.1437 141.606 27.5903C141.099 27.1812 140.664 26.8925 140.302 26.724C139.964 26.5315 139.626 26.3631 139.287 26.2187C138.973 26.0503 138.575 25.8217 138.092 25.5329C136.208 24.4501 135.266 23.1628 135.266 21.671C135.266 20.8047 135.507 20.0468 135.99 19.3971C136.473 18.7233 137.114 18.206 137.911 17.8451C138.732 17.4601 139.601 17.2676 140.519 17.2676C140.785 17.2676 141.087 17.2916 141.425 17.3398C141.763 17.3638 142.138 17.3999 142.548 17.448C142.959 17.5202 143.297 17.5804 143.563 17.6285C143.829 17.6766 144.046 17.7127 144.215 17.7368C144.481 18.8436 144.626 20.0708 144.65 21.4183C144.65 21.5386 144.493 21.5988 144.179 21.5988C143.841 21.5988 143.659 21.5145 143.635 21.3461C143.515 20.6724 143.164 20.0347 142.585 19.4332C142.029 18.8316 141.389 18.5308 140.664 18.5308C138.925 18.5308 138.056 19.2407 138.056 20.6603C138.056 21.0213 138.092 21.3461 138.164 21.6349C138.261 21.8995 138.466 22.1522 138.78 22.3928C139.529 22.9703 140.411 23.5478 141.425 24.1253C142.464 24.7028 143.321 25.2442 143.998 25.7495C145.012 26.5195 145.519 27.4218 145.519 28.4565C145.519 29.3949 145.266 30.2491 144.758 31.0191C144.251 31.7651 143.575 32.3546 142.73 32.7877C141.884 33.2208 140.954 33.4374 139.94 33.4374Z" fill="#F4C856"/>
</svg>
