<svg width="33" height="41" viewBox="0 0 33 41" fill="none" xmlns="http://www.w3.org/2000/svg">
<path d="M32.7874 16.0328L28.6546 4.28496V1.56763C28.6546 1.3781 28.5639 1.19951 28.4096 1.08492C28.2553 0.970327 28.0552 0.932977 27.8684 0.984112L25.1505 1.72773L22.4234 0.984035C22.3147 0.954386 22.1996 0.954386 22.0908 0.984035L19.3635 1.72781L16.6363 0.984035C16.5275 0.954386 16.4124 0.954386 16.3036 0.984035L13.5764 1.72781L10.8491 0.984035C10.7404 0.954386 10.6253 0.954386 10.5165 0.984035L7.78913 1.72781L5.13989 1.00537C5.06849 0.977258 4.99047 0.961779 4.90883 0.961779H4.89537C4.58575 0.961779 4.32368 1.1855 4.28172 1.48545C4.27172 1.55654 4.27495 1.62669 4.28943 1.69346V4.28596L0.157107 16.0328C0.134828 16.0962 0.123413 16.1628 0.123413 16.2299V28.314C0.123413 28.6487 0.400681 28.9198 0.742738 28.9198C1.0848 28.9198 1.36206 28.6487 1.36206 28.314V16.3313L5.35103 4.99216H22.8537C23.1957 4.99216 23.473 4.721 23.473 4.38631C23.473 4.05162 23.1957 3.78046 22.8537 3.78046H5.52824V2.36916L7.62278 2.94035C7.7315 2.97 7.84667 2.97 7.95539 2.94035L10.6826 2.19657L13.4099 2.94035C13.5186 2.97 13.6338 2.97 13.7425 2.94035L16.4698 2.19657L19.197 2.94035C19.3057 2.97 19.4209 2.97 19.5296 2.94035L22.2569 2.19657L24.9842 2.94035C25.0932 2.97 25.2084 2.97 25.3174 2.94019L27.4157 2.36615V3.78039H24.8836C24.5415 3.78039 24.2643 4.05154 24.2643 4.38623C24.2643 4.72092 24.5415 4.99208 24.8836 4.99208H27.1669L23.2829 16.0328C23.2606 16.0962 23.2492 16.1628 23.2492 16.2299V39.1798H1.36206V30.2998C1.36206 29.9651 1.0848 29.6939 0.742738 29.6939C0.400681 29.6939 0.123413 29.9651 0.123413 30.2998V39.7856C0.123413 40.1203 0.400681 40.3915 0.742738 40.3915H23.8688C23.889 40.3915 23.9092 40.3904 23.9294 40.3885C23.9391 40.3875 23.9486 40.3858 23.9582 40.3845C23.9683 40.383 23.9784 40.3818 23.9885 40.3799C24.0003 40.3777 24.0119 40.3746 24.0234 40.3717C24.0312 40.3697 24.0388 40.3681 24.0464 40.3658C24.0587 40.3623 24.0707 40.3579 24.0826 40.3536C24.0882 40.3516 24.094 40.35 24.0995 40.3479L24.109 40.3442C24.1094 40.344 24.1099 40.3439 24.1104 40.3436L32.4326 37.0768C32.6675 36.9846 32.8213 36.7619 32.8213 36.5145V16.2298C32.8211 16.1628 32.8097 16.0962 32.7874 16.0328ZM31.5824 36.1047L24.4881 38.8896V16.3313L28.0352 6.24813L31.5823 16.3312V36.1047H31.5824Z" fill="#503277"/>
<path d="M13.3204 27.2576L13.2946 27.2324C12.7635 26.7128 11.9441 26.4382 10.9251 26.4382C9.19267 26.4381 7.21897 27.2258 6.52565 28.1942C6.22752 28.6105 6.14942 29.0716 6.30585 29.4925C6.55887 30.1733 7.05704 30.7341 7.78658 31.1593C8.09486 31.339 8.38039 31.5572 8.63798 31.8108C8.89439 32.06 9.11749 32.3394 9.30124 32.641C9.73595 33.3548 10.3092 33.842 11.0051 34.0895C11.1499 34.141 11.3007 34.1671 11.4532 34.1671H11.4534C12.2641 34.1671 13.0403 33.4324 13.5828 32.1512C14.2516 30.5721 14.4532 28.3657 13.3204 27.2576ZM12.4385 31.6874C12.0367 32.6362 11.5938 32.9555 11.4535 32.9554C11.4477 32.9554 11.44 32.9548 11.4283 32.9506C11.0077 32.801 10.6501 32.4881 10.3653 32.0207C10.1285 31.6319 9.84113 31.272 9.51379 30.9538C9.18567 30.6309 8.81787 30.3498 8.42055 30.1182C7.94277 29.8397 7.62291 29.4899 7.46995 29.0784C7.45058 29.0262 7.50561 28.9376 7.54017 28.8893C7.95064 28.3161 9.51867 27.6497 10.9251 27.6497C11.5987 27.6497 12.1292 27.8058 12.4221 28.0923L12.4397 28.1096C13.1098 28.7651 12.9653 30.4435 12.4385 31.6874Z" fill="#503277"/>
<path d="M14.6802 20.5177C14.3867 20.4088 14.0798 20.3538 13.7681 20.3538C12.7051 20.3538 11.7378 21.0071 11.3609 21.9795C10.8901 23.1943 10.927 25.8651 12.3965 26.4102C12.5625 26.4718 12.7406 26.5029 12.9259 26.5029H12.926C14.3412 26.5029 15.8144 24.6941 16.1744 23.7647C16.6777 22.4666 16.0074 21.01 14.6802 20.5177ZM15.0164 23.3352C14.7171 24.1076 13.5438 25.2913 12.9261 25.2913C12.8909 25.2913 12.8614 25.2866 12.8358 25.2772C12.3573 25.0996 12.1622 23.3306 12.5192 22.4092C12.7148 21.9045 13.2168 21.5655 13.7682 21.5655C13.9295 21.5655 14.0885 21.5942 14.2411 21.6509C14.9296 21.9061 15.2773 22.6618 15.0164 23.3352Z" fill="#503277"/>
<path d="M20.1795 25.8972C19.8027 24.9248 18.8352 24.2715 17.7724 24.2715C17.4606 24.2715 17.1537 24.3266 16.8603 24.4354C16.244 24.664 15.4835 25.2101 14.9228 25.8266C14.1722 26.6518 13.9 27.4703 14.1561 28.1312C14.5997 29.276 16.2929 29.3995 17.0002 29.3995C17.6337 29.3995 18.2479 29.3065 18.6853 29.1443C20.0124 28.6521 20.6827 27.1954 20.1795 25.8972ZM18.2461 28.0114C17.9525 28.1203 17.4752 28.1878 17.0002 28.1878C16.0629 28.1878 15.4069 27.9407 15.3143 27.7016C15.2511 27.5386 15.3913 27.1345 15.8482 26.632C16.3435 26.0875 16.9476 25.699 17.2993 25.5685C17.452 25.512 17.6111 25.4832 17.7723 25.4832C18.3238 25.4832 18.8257 25.8221 19.0213 26.3268C19.2823 27.0003 18.9346 27.756 18.2461 28.0114Z" fill="#503277"/>
<path d="M17.7803 29.949C17.5898 29.9114 17.3708 29.8923 17.1293 29.8923C16.0009 29.8923 14.2344 30.3177 13.9925 31.4892C13.8631 32.1159 14.2206 32.8006 14.9991 33.4172C15.5708 33.87 16.3061 34.235 16.8723 34.3469C17.0225 34.3765 17.176 34.3916 17.3282 34.3916C18.4143 34.3916 19.3589 33.6348 19.5742 32.5922C19.8246 31.3796 19.0199 30.194 17.7803 29.949ZM18.36 32.3521C18.2609 32.8317 17.827 33.1798 17.3281 33.1798C17.258 33.1798 17.1871 33.1729 17.1175 33.159C16.8023 33.0967 16.2412 32.8419 15.7785 32.4754C15.324 32.1154 15.1865 31.8266 15.2066 31.7292C15.2564 31.4881 16.1565 31.1041 17.1292 31.1041C17.3277 31.1041 17.4595 31.122 17.535 31.1368C18.1051 31.2494 18.4751 31.7947 18.36 32.3521Z" fill="#503277"/>
<path d="M10.5383 22.8647C10.323 21.822 9.37851 21.0652 8.29235 21.0652C8.14009 21.0652 7.98674 21.0803 7.83653 21.1099C7.2361 21.2285 6.7188 21.5688 6.38005 22.0679C6.04122 22.5672 5.9214 23.1655 6.04272 23.7529C6.24968 24.7549 7.41591 26.5954 8.70069 26.5956H8.70085C8.78957 26.5956 8.87798 26.587 8.96386 26.5701C10.3362 26.2989 10.7695 23.9844 10.5383 22.8647ZM8.71872 25.3824C8.71336 25.3834 8.70754 25.384 8.70093 25.384H8.70085C8.28573 25.3839 7.40851 24.2474 7.25688 23.513C7.20115 23.2429 7.25625 22.9678 7.41197 22.7382C7.56777 22.5087 7.80559 22.3522 8.08168 22.2977C8.15127 22.2839 8.22212 22.2769 8.29227 22.2769C8.79114 22.2769 9.22499 22.625 9.32411 23.1045C9.49211 23.918 9.06558 25.3138 8.71872 25.3824Z" fill="#503277"/>
</svg>
