<svg width="73" height="73" viewBox="0 0 73 73" fill="none" xmlns="http://www.w3.org/2000/svg">
<path d="M36.8595 70.2809C55.7146 70.2809 71 54.9955 71 36.1404C71 17.2852 55.7146 2 36.8595 2C18.0043 2 2.71912 17.2852 2.71912 36.1404C2.71912 54.9955 18.0043 70.2809 36.8595 70.2809Z" stroke="#503277" stroke-width="4" stroke-linecap="round" stroke-linejoin="round"/>
<path d="M21.7395 23.9254C24.1326 23.6341 26.4169 26.1758 26.8413 29.6024C27.2658 33.0291 25.6697 36.043 23.2765 36.3343C20.8833 36.6255 18.5992 34.0839 18.1747 30.6572C17.7502 27.2306 19.3462 24.2166 21.7395 23.9254ZM31.9673 15.4639C34.3785 15.4639 36.3332 18.9084 36.3332 23.1575C36.3332 27.4066 34.3785 30.8511 31.9673 30.8511C29.5561 30.8511 27.6015 27.4066 27.6015 23.1575C27.6015 18.9084 29.5561 15.4639 31.9673 15.4639ZM43.4234 16.9252C45.8287 17.0919 47.5363 20.6632 47.2373 24.9019C46.9382 29.1406 44.7459 32.4417 42.3406 32.2749C39.9353 32.1082 38.2278 28.5369 38.5268 24.2982C38.8258 20.0595 41.0181 16.7584 43.4234 16.9252ZM52.7525 26.4221C55.0235 26.9418 56.1807 30.2999 55.3369 33.9225C54.4932 37.5451 51.9681 40.0606 49.697 39.5409C47.426 39.0211 46.2688 35.663 47.1126 32.0403C47.9564 28.4177 50.4814 25.9024 52.7525 26.4221ZM34.8779 51.5277C34.8779 51.5277 27.844 52.9703 25.9036 52.9703C23.9632 52.9703 19.3548 51.5277 19.3548 46.7192C19.3548 40.949 24.2058 41.9107 27.1164 39.0256C30.0269 36.1405 30.0269 32.2937 35.8481 32.2937C41.6692 32.2937 42.6394 37.1022 45.55 39.9873C48.4606 42.8724 52.3413 43.5937 52.3413 47.4405C52.3413 51.2873 49.4308 52.9703 44.5798 52.9703C39.7288 52.9703 41.6692 51.5277 34.8779 51.5277Z" fill="#503277"/>
</svg>
