<svg width="25" height="41" viewBox="0 0 25 41" fill="none" xmlns="http://www.w3.org/2000/svg">
<path d="M12.3546 31.844C9.77744 31.844 7.68066 33.6459 7.68066 35.8607C7.68066 36.9125 8.35208 37.5405 9.47662 37.5405C9.9931 37.5405 10.5598 37.4192 11.1078 37.302C11.5613 37.2051 12.0302 37.1047 12.3545 37.1047C12.6369 37.1047 13.0824 37.2006 13.5133 37.2933C14.0776 37.4148 14.661 37.5404 15.1993 37.5404C16.3447 37.5403 17.0286 36.9124 17.0286 35.8606C17.0287 33.6459 14.9319 31.844 12.3546 31.844ZM15.4902 36.1189C15.4896 36.1193 15.4263 36.1612 15.1993 36.1612C14.8329 36.1612 14.3346 36.054 13.8526 35.9502C13.3159 35.8346 12.8088 35.7255 12.3546 35.7255C11.8595 35.7255 11.306 35.8438 10.7707 35.9583C10.3044 36.058 9.82235 36.1611 9.47662 36.1611C9.2817 36.1611 9.22194 36.127 9.22062 36.1296C9.21728 36.1248 9.17474 36.0601 9.17474 35.8606C9.17474 34.4063 10.6012 33.2231 12.3547 33.2231C14.1082 33.2231 15.5348 34.4063 15.5348 35.8606C15.5347 36.0298 15.5007 36.1067 15.4902 36.1189Z" fill="#503277"/>
<path d="M10.029 30.5268C10.029 29.3128 9.11685 28.3252 7.99566 28.3252C6.87437 28.3252 5.96216 29.3128 5.96216 30.5268C5.96216 31.7407 6.87437 32.7283 7.99566 32.7283C9.11685 32.7283 10.029 31.7407 10.029 30.5268ZM7.45615 30.5268C7.45615 30.0561 7.74098 29.7044 7.99566 29.7044C8.25016 29.7044 8.53499 30.0561 8.53499 30.5268C8.53499 30.9974 8.25025 31.3491 7.99566 31.3491C7.74106 31.3491 7.45615 30.9974 7.45615 30.5268Z" fill="#503277"/>
<path d="M12.4902 31.367C13.6115 31.367 14.5237 30.3794 14.5237 29.1654C14.5237 27.9515 13.6115 26.9639 12.4902 26.9639C11.369 26.9639 10.4569 27.9515 10.4569 29.1654C10.4569 30.3794 11.369 31.367 12.4902 31.367ZM12.4902 28.3431C12.7448 28.3431 13.0297 28.6948 13.0297 29.1654C13.0297 29.6361 12.7449 29.9878 12.4902 29.9878C12.2356 29.9878 11.9509 29.6361 11.9509 29.1654C11.9509 28.6948 12.2356 28.3431 12.4902 28.3431Z" fill="#503277"/>
<path d="M16.9848 28.3252C15.8635 28.3252 14.9513 29.3128 14.9513 30.5268C14.9513 31.7407 15.8635 32.7283 16.9848 32.7283C18.1061 32.7283 19.0183 31.7407 19.0183 30.5268C19.0183 29.3128 18.1061 28.3252 16.9848 28.3252ZM16.9848 31.3491C16.7302 31.3491 16.4453 30.9974 16.4453 30.5268C16.4453 30.0561 16.7301 29.7044 16.9848 29.7044C17.2394 29.7044 17.5243 30.0561 17.5243 30.5268C17.5243 30.9974 17.2395 31.3491 16.9848 31.3491Z" fill="#503277"/>
<path d="M18.7737 11.6711H17.9828V9.68334C17.9828 8.76624 17.1746 8.02016 16.1812 8.02016H13.2372V6.07301H14.4675C15.4609 6.07301 16.2691 5.32693 16.2691 4.40982V2.62494C16.2691 1.70783 15.4609 0.961751 14.4675 0.961751H7.08545L6.92111 0.96167C5.86679 0.96167 4.27349 0.96167 2.93004 1.87975C1.3994 2.92569 0.655396 4.82359 0.655396 7.68208C0.655396 8.06291 0.989874 8.3717 1.40239 8.3717H4.00958C4.4221 8.3717 4.75658 8.06291 4.75658 7.68208C4.75658 7.00237 5.01425 6.56426 5.56738 6.30318C6.04976 6.07552 6.57978 6.07293 6.60008 6.07285C6.60562 6.07293 6.61124 6.07301 6.61678 6.07301H11.7432V8.02016H8.79915C7.80573 8.02016 6.99757 8.76624 6.99757 9.68334V11.6711H6.20663C3.22647 11.6711 0.801895 13.9094 0.801895 16.6606V39.7018C0.801895 40.0827 1.13637 40.3915 1.54889 40.3915H23.4315C23.844 40.3915 24.1785 40.0827 24.1785 39.7018V16.6606C24.1785 13.9094 21.754 11.6711 18.7737 11.6711ZM6.60219 4.6937C5.56861 4.6937 3.71105 5.19387 3.33149 6.99247H2.16591C2.39634 2.34106 4.99817 2.3409 6.92111 2.3409L14.4675 2.34098C14.6371 2.34098 14.7751 2.46836 14.7751 2.62494V4.40982C14.7751 4.56641 14.6371 4.69378 14.4675 4.69378H6.61678L6.60219 4.6937ZM8.49156 9.68334C8.49156 9.52676 8.62954 9.39938 8.79915 9.39938H16.1812C16.3508 9.39938 16.4888 9.52676 16.4888 9.68334V11.6711H8.49156V9.68334ZM6.20672 13.0503H18.7738C20.9302 13.0503 22.6846 14.6699 22.6846 16.6606V18.5514C21.1589 18.4522 17.2546 18.5171 13.8459 21.2509C11.7778 22.9094 9.37864 23.6883 7.09055 23.4443C5.17121 23.2396 3.4692 22.3046 2.29598 20.8114V16.6606C2.29598 14.6699 4.05027 13.0503 6.20672 13.0503ZM2.29598 39.0122V22.8713C3.58309 23.9519 5.17622 24.6285 6.919 24.8144C7.25243 24.8499 7.58735 24.8676 7.92279 24.8676C10.3136 24.8676 12.7309 23.972 14.8256 22.2921C17.8849 19.8387 21.4937 19.8539 22.6846 19.9375V39.0122H2.29598Z" fill="#503277"/>
</svg>
